<svg xmlns:rdf="http://www.w3.org/1999/02/22-rdf-syntax-ns#" xmlns="http://www.w3.org/2000/svg" xmlns:cc="http://creativecommons.org/ns#" xmlns:dc="http://purl.org/dc/elements/1.1/" version="1.1" x="0px" y="0px" viewBox="0 0 100 125"><g transform="translate(0,-952.36218)"><path style="baseline-shift:baseline;block-progression:tb;color:#000000;direction:ltr;text-indent:0;enableBackground:accumulate;text-transform:none;" fill="#000" d="m66.813,960.85a1.0001,1.0001,0,0,0,-0.09375,0.0312h-5.4688-11.25-11.25-5.5625a1.0001,1.0001,0,0,0,-0.0625,0h-5.625-5.625-5.5938a1.0001,1.0001,0,0,0,-0.03125,0h-11.25a1.0001,1.0001,0,0,0,-0.09375,0,1.0001,1.0001,0,0,0,-0.09375,0.0312,1.0001,1.0001,0,0,0,-0.1875,0.0625,1.0001,1.0001,0,0,0,-0.1875,0.0937,1.0001,1.0001,0,0,0,-0.21875,0.1875,1.0001,1.0001,0,0,0,0,0.0312,1.0001,1.0001,0,0,0,-0.15625,0.21875,1.0001,1.0001,0,0,0,0,0.0312,1.0001,1.0001,0,0,0,-0.03125,0.0937,1.0001,1.0001,0,0,0,-0.03125,0.1875,1.0001,1.0001,0,0,0,0,0.0625,1.0001,1.0001,0,0,0,0,0.0312v80.938a1.0001,1.0001,0,0,0,0,0.125,1.0001,1.0001,0,0,0,0.03125,0.1875,1.0001,1.0001,0,0,0,0.03125,0.094,1.0001,1.0001,0,0,0,0.09375,0.1875,1.0001,1.0001,0,0,0,0.1875,0.2188,1.0001,1.0001,0,0,0,0.03125,0,1.0001,1.0001,0,0,0,0.21875,0.1562,1.0001,1.0001,0,0,0,0.03125,0,1.0001,1.0001,0,0,0,0.0625,0.031,1.0001,1.0001,0,0,0,0.03125,0,1.0001,1.0001,0,0,0,0.1875,0.031,1.0001,1.0001,0,0,0,0.09375,0h0.125l18.281-0.1562a1.0001,1.0001,0,0,0,0.125,0s2.2974-0.3859,2.9062-2.5313c0.30441-1.0726,0.13027-2.4189-0.6875-4.0937s-2.2716-3.7066-4.75-6.3125c-4.7054-4.9475-5.8525-9.5777-5.875-13-0.01608-2.4424,0.5286-4.1755,0.84375-5h1.5312a1.0001,1.0001,0,0,0,1,-1v-3.375c11.438-1.5315,19.709-4.1263,25.031-10.438,3.2409-3.843,5.329-8.9696,6.4688-15.906,1.1398,6.9367,3.2278,12.063,6.4688,15.906,5.3226,6.3113,13.592,8.8502,25.031,10.375v3.4062a1.0001,1.0001,0,0,0,1,1h1.5c0.31316,0.8019,0.89127,2.5283,0.875,5-0.02253,3.4222-1.1696,8.0525-5.875,13-2.4784,2.6059-3.9322,4.669-4.75,6.3438-0.81777,1.6748-0.99191,3.0211-0.6875,4.0937,0.60882,2.1454,2.9062,2.5,2.9062,2.5a1.0001,1.0001,0,0,0,0.125,0l18.125,0.1563h0.09375a1.0001,1.0001,0,0,0,0.375,0,1.0001,1.0001,0,0,0,0.21875,-0.062,1.0001,1.0001,0,0,0,0.15625,-0.094,1.0001,1.0001,0,0,0,0.4375,-0.8437v-80.938-0.0312a1.0001,1.0001,0,0,0,0,-0.0937,1.0001,1.0001,0,0,0,-0.03125,-0.0625,1.0001,1.0001,0,0,0,0,-0.0312,1.0001,1.0001,0,0,0,0,-0.0625,1.0001,1.0001,0,0,0,0,-0.0312,1.0001,1.0001,0,0,0,-0.0625,-0.0625,1.0001,1.0001,0,0,0,-0.03125,-0.125,1.0001,1.0001,0,0,0,-0.0625,-0.0625,1.0001,1.0001,0,0,0,0,-0.0312,1.0001,1.0001,0,0,0,-0.0625,-0.0312,1.0001,1.0001,0,0,0,-0.0625,-0.125,1.0001,1.0001,0,0,0,-0.0625,-0.0312,1.0001,1.0001,0,0,0,-0.625,-0.25h-11.062a1.0001,1.0001,0,0,0,-0.25,-0.0312,1.0001,1.0001,0,0,0,-0.09375,0.0312h-5.4688-5.625-5.5a1.0001,1.0001,0,0,0,-0.1875,-0.0312zm-60.813,2.0625,9.5938,0c6.8173,14.649,5.2203,33.803-4.7188,43.938h-4.7813l-0.09375-43.938zm11.844,0,14.562,0c5.1267,15.125,3.028,23.769-1.8438,29.875-3.7542,4.7056-9.2874,7.9176-14.719,11.125,7.3166-11.114,7.8803-27.652,2-41zm16.656,0,14.469,0c-0.0581,2.7048-0.06634,5.2656,0,7.6562-0.37485,12.827-2.6013,20.946-6.9688,26.125-5.288,6.2703-13.899,8.659-26.906,10.125a1.0001,1.0001,0,0,0,-0.09375,0.031h-0.125c5.9679-3.5651,12.68-7.0846,17.25-12.813,5.2114-6.532,7.3567-15.978,2.375-31.125zm16.531,0,14.469,0c-4.9698,15.13-2.8332,24.566,2.375,31.094,4.5757,5.7352,11.308,9.2427,17.281,12.812h-0.09375-0.15625-0.09375c-12.952-1.467-21.538-3.902-26.812-10.156-4.3693-5.1809-6.5953-13.296-6.9688-26.125,0.06551-2.3817,0.05785-4.9318,0-7.625zm16.562,0,14.562,0c-5.8867,13.361-5.308,29.892,2.0312,41-5.4387-3.2206-10.99-6.444-14.75-11.156-4.8687-6.1025-6.9581-14.737-1.8438-29.844zm16.812,0,9.5938,0-0.09375,43.906-4.8125,0c-9.9113-10.143-11.498-29.272-4.6875-43.906zm-78.313,45.938,5.0313,0a1.0054,1.0054,0,0,0,0.3125,0h3.75,1.3125v1.9375h-1.1875-9.2188v-1.9375zm77.406,0,4.9688,0a1.0001,1.0001,0,0,0,0.03125,0.031,1.0001,1.0001,0,0,0,0.1875,0.031,1.0001,1.0001,0,0,0,0.125,0,1.0001,1.0001,0,0,0,0.0625,0,1.0001,1.0001,0,0,0,0.03125,0,1.0001,1.0001,0,0,0,0.28125,-0.062h4.7188v1.9062h-10.406v-1.9062zm2.625,3.9062,7.7812,0,0.09375,29.094-17.344-0.1563c-0.0043-0.0008-0.0258,0-0.03125,0-0.18466-0.037-0.92423-0.2136-1.1562-1.0312-0.13092-0.4613-0.11858-1.2926,0.5625-2.6875s2.0483-3.3318,4.4375-5.8438c5.0298-5.2886,6.3808-10.479,6.4062-14.344,0.01517-2.3046-0.37879-3.9094-0.75-5.0313zm-80.031,0.031,7.7813,0c-0.3685,1.1261-0.76498,2.7253-0.75,5,0.02544,3.8645,1.3765,9.0865,6.4062,14.375,2.3892,2.5121,3.7564,4.4176,4.4375,5.8125,0.68108,1.3949,0.69342,2.2262,0.5625,2.6875-0.26183,0.9226-1.2812,1.0625-1.2812,1.0625l-17.25,0.1562,0.09375-29.094z"/></g><text x="0" y="115" fill="#000000" font-size="5px" font-weight="bold" font-family="'Helvetica Neue', Helvetica, Arial-Unicode, Arial, Sans-serif">Created by Nibras@design</text><text x="0" y="120" fill="#000000" font-size="5px" font-weight="bold" font-family="'Helvetica Neue', Helvetica, Arial-Unicode, Arial, Sans-serif">from the Noun Project</text></svg>