<svg xmlns="http://www.w3.org/2000/svg" xmlns:xlink="http://www.w3.org/1999/xlink" xml:space="preserve" version="1.1" style="shape-rendering:geometricPrecision;text-rendering:geometricPrecision;image-rendering:optimizeQuality;" viewBox="0 0 333 416.25" x="0px" y="0px" fill-rule="evenodd" clip-rule="evenodd"><defs><style type="text/css">
   
    .fil0 {fill:black;fill-rule:nonzero}
   
  </style></defs><g><path class="fil0" d="M170 70l0 152 54 0c7,-17 17,-31 28,-36 -44,-24 -71,-69 -82,-116zm-6 152l0 -152c-12,47 -39,92 -82,116 10,5 20,19 27,36l55 0zm58 6l-110 0c10,28 13,59 12,89l-93 0c0,-100 0,-201 0,-301 91,0 181,0 271,0 0,100 0,201 0,301l-92 0c-2,-30 1,-61 12,-89z"/></g><text x="0" y="348" fill="#000000" font-size="5px" font-weight="bold" font-family="'Helvetica Neue', Helvetica, Arial-Unicode, Arial, Sans-serif">Created by nawaf falah</text><text x="0" y="353" fill="#000000" font-size="5px" font-weight="bold" font-family="'Helvetica Neue', Helvetica, Arial-Unicode, Arial, Sans-serif">from the Noun Project</text></svg>