<svg xmlns="http://www.w3.org/2000/svg" xmlns:xlink="http://www.w3.org/1999/xlink" version="1.1" x="0px" y="0px" viewBox="0 0 100 125" enableBackground="new 0 0 100 100" xml:space="preserve"><path fill="#000000" d="M90.206,2.763H9.793c-2.177,0-3.882,1.545-3.882,3.516c0,1.792,1.409,3.231,3.3,3.479v0.783v82.927  c0,0.804,0.345,3.428,4.782,3.428c0.774,0,3.325-0.072,4.556-0.979c0.178-0.1,0.539-0.235,0.814-0.284  c0.866,0.706,1.946,1.073,3.152,1.073c1.069,0,2.215-0.309,2.961-0.791c0.238-0.123,0.711-0.291,1.032-0.342  c0.863,0.506,2.007,0.752,3.481,0.752c1.01,0,1.861-0.114,1.955-0.127c1.168-0.162,2.084-1.087,2.234-2.258  c1.703-13.22-0.211-23.424-5.69-30.33c-1.884-2.377-3.959-4.048-5.898-5.222c9.198-4.594,14.929-13.96,16.722-27.506  c1.196-9.038,0.332-17.527-0.228-21.484h21.833c-0.559,3.957-1.423,12.447-0.228,21.484C62.481,44.43,68.212,53.796,77.41,58.39  c-1.938,1.174-4.014,2.845-5.898,5.222c-5.478,6.906-7.393,17.11-5.689,30.33c0.15,1.171,1.066,2.096,2.234,2.258  c0.094,0.013,0.943,0.127,1.955,0.127c1.475,0,2.619-0.246,3.481-0.752c0.32,0.051,0.793,0.219,1.031,0.342  c0.746,0.482,1.893,0.791,2.961,0.791c1.206,0,2.287-0.367,3.153-1.073c0.273,0.049,0.636,0.185,0.813,0.284  c1.229,0.906,3.781,0.979,4.556,0.979c4.437,0,4.78-2.624,4.78-3.428V10.542V9.758c1.893-0.248,3.302-1.687,3.302-3.479  C94.09,4.308,92.385,2.763,90.206,2.763z M17.649,93.45c-0.318,0.14-0.563,0.284-0.673,0.378c-0.224,0.191-1.678,0.453-2.984,0.453  c-1.138,0-2.166-0.198-2.166-0.812c0-0.549,0-15.398,0-32.6C18.755,68.827,17.729,91.855,17.649,93.45z M14.569,53.175  c1.552-3.466,3.24-10.061,4.236-22.94c0.65-8.393,0.772-16.546,0.791-20.313h6.388C25.886,17.865,24.783,44.722,14.569,53.175z   M28.611,9.922h5.924c-0.145,7.989-1.777,35.249-17.039,44.054C27.535,43.604,28.544,17.829,28.611,9.922z M11.827,52.856  c0-17.447,0-35.407,0-42.315c0-0.219,0-0.423,0-0.62h5.163C16.982,24.56,15.594,45.836,11.827,52.856z M24.853,93.339  c-0.383,0.149-0.681,0.298-0.785,0.37c-0.19,0.134-0.833,0.383-1.554,0.383c-0.563,0-1.173-0.15-1.654-0.623  c-0.166-0.164-0.362-0.274-0.575-0.349c0.158-3.513,0.672-21.398-4.587-31.124C26.538,70.622,25.017,91.451,24.853,93.339z   M14.973,58.274c0,0,20.885,2.129,16.609,35.333c0,0-0.735,0.102-1.594,0.102c-0.836,0-1.789-0.096-2.289-0.48  c-0.062-0.047-0.129-0.087-0.2-0.121c0.334-4.242,1.439-27.228-12.896-34.978c9.521-3.17,16.38-12.425,19.939-26.995  c1.543-6.317,2.188-12.41,2.452-16.812C38.05,26.978,37.464,53.46,14.973,58.274z M72.5,93.107c-0.07,0.034-0.138,0.074-0.199,0.121  c-0.5,0.385-1.452,0.48-2.289,0.48c-0.858,0-1.594-0.102-1.594-0.102c-4.276-33.204,16.608-35.333,16.608-35.333  c-22.491-4.814-23.077-31.297-22.02-43.951c0.261,4.402,0.906,10.494,2.449,16.812c3.561,14.569,10.42,23.825,19.94,26.995  C71.061,65.88,72.166,88.865,72.5,93.107z M82.504,53.976C67.242,45.171,65.609,17.911,65.465,9.922h5.925  C71.456,17.829,72.464,43.604,82.504,53.976z M74.015,9.922h6.389c0.019,3.767,0.141,11.92,0.791,20.313  c0.996,12.879,2.685,19.474,4.236,22.94C75.217,44.722,74.114,17.865,74.015,9.922z M79.716,93.12  c-0.214,0.074-0.41,0.185-0.576,0.349c-0.48,0.473-1.091,0.623-1.654,0.623c-0.721,0-1.363-0.249-1.553-0.383  c-0.105-0.072-0.403-0.221-0.785-0.37c-0.164-1.888-1.687-22.717,9.156-31.343C79.043,71.722,79.558,89.607,79.716,93.12z   M88.172,93.469c0,0.614-1.025,0.812-2.164,0.812c-1.306,0-2.759-0.262-2.984-0.453c-0.11-0.094-0.354-0.238-0.672-0.378  c-0.081-1.595-1.106-24.623,5.82-32.581C88.172,78.07,88.172,92.92,88.172,93.469z M88.172,10.542c0,6.908,0,24.868,0,42.315  c-3.766-7.02-5.154-28.297-5.161-42.935h5.161C88.172,10.118,88.172,10.323,88.172,10.542z M90.206,7.18  c-0.429,0-2.034,0.126-2.034,0.126H11.827c0,0-1.604-0.126-2.034-0.126c-0.699,0-1.267-0.403-1.267-0.9s0.567-0.9,1.267-0.9  c0.211,0,80.202,0,80.413,0c0.7,0,1.268,0.403,1.268,0.9S90.906,7.18,90.206,7.18z"/><text x="0" y="115" fill="#000000" font-size="5px" font-weight="bold" font-family="'Helvetica Neue', Helvetica, Arial-Unicode, Arial, Sans-serif">Created by Andrey Vasiliev</text><text x="0" y="120" fill="#000000" font-size="5px" font-weight="bold" font-family="'Helvetica Neue', Helvetica, Arial-Unicode, Arial, Sans-serif">from the Noun Project</text></svg>