<svg xmlns="http://www.w3.org/2000/svg" xmlns:xlink="http://www.w3.org/1999/xlink" version="1.1" x="0px" y="0px" viewBox="0 0 100 125" enableBackground="new 0 0 100 100" xml:space="preserve"><path d="M88.504,18.645c-0.001-0.006,0-0.011-0.001-0.017c-0.003-0.012-0.012-0.022-0.015-0.034  c-0.039-0.146-0.098-0.283-0.176-0.407c-0.006-0.009-0.009-0.019-0.015-0.027c-0.081-0.123-0.183-0.228-0.295-0.322  c-0.021-0.017-0.039-0.034-0.061-0.05c-0.113-0.085-0.238-0.154-0.374-0.205c-0.023-0.009-0.047-0.015-0.071-0.022  c-0.144-0.045-0.293-0.077-0.451-0.077H12.954c-0.159,0-0.309,0.031-0.452,0.077c-0.024,0.007-0.048,0.013-0.071,0.022  c-0.135,0.051-0.26,0.12-0.374,0.206c-0.021,0.016-0.04,0.033-0.061,0.05c-0.112,0.094-0.213,0.199-0.294,0.322  c-0.006,0.009-0.01,0.02-0.016,0.029c-0.078,0.125-0.136,0.262-0.175,0.407c-0.003,0.012-0.011,0.021-0.014,0.033  c-0.001,0.005,0,0.011-0.001,0.017c-0.025,0.109-0.042,0.221-0.042,0.337v21.323c0,0.001,0,0.003,0,0.005v40.705  c0,0.828,0.671,1.5,1.5,1.5H27.91c0.829,0,1.5-0.672,1.5-1.5c0-12.677-10.388-32.779-13.975-39.342  c8.382-0.913,15.493-6.419,18.464-14.378c5.207,1.005,11.13,1.71,17.535,1.71c5.063,0,10.008-0.451,14.815-1.334  c3.057,7.737,10.108,13.096,18.317,14.001c-3.586,6.562-13.976,26.666-13.976,39.343c0,0.828,0.672,1.5,1.5,1.5h14.955  c0.828,0,1.5-0.672,1.5-1.5V18.983C88.546,18.866,88.529,18.754,88.504,18.645z M26.359,79.517H14.454V46.24  C18.531,54.099,25.691,69.203,26.359,79.517z M14.454,38.752V21.342c2.966,1.308,8.769,3.596,16.472,5.334  C28.18,33.536,21.838,38.194,14.454,38.752z M20.474,20.483h59.764c-8.986,3.668-18.646,5.523-28.804,5.523  C38.394,26.007,27.219,22.907,20.474,20.483z M85.546,79.517H73.642c0.668-10.31,7.827-25.415,11.904-33.275V79.517z M69.237,27.06  c5.647-1.269,11.097-3.151,16.309-5.652v17.344C78.34,38.2,72.068,33.693,69.237,27.06z"/><text x="0" y="115" fill="#000000" font-size="5px" font-weight="bold" font-family="'Helvetica Neue', Helvetica, Arial-Unicode, Arial, Sans-serif">Created by Korokoro</text><text x="0" y="120" fill="#000000" font-size="5px" font-weight="bold" font-family="'Helvetica Neue', Helvetica, Arial-Unicode, Arial, Sans-serif">from the Noun Project</text></svg>